<svg width="57" height="64" viewBox="0 0 57 64" fill="none" xmlns="http://www.w3.org/2000/svg">
<path fill-rule="evenodd" clip-rule="evenodd" d="M4.096 0H52.224C54.4862 0 56.32 1.83384 56.32 4.096V59.904C56.32 62.1662 54.4862 64 52.224 64H4.096C1.83384 64 0 62.1662 0 59.904V4.096C0 1.83384 1.83384 0 4.096 0ZM44.7551 7.70368C44.6226 7.57118 10.77 8.03491 10.6375 8.10116C10.6375 8.10116 10.3725 13.7322 10.24 21.0857C10.9687 20.6882 11.6975 20.357 12.5587 20.092C14.9436 19.297 17.5935 18.7008 20.6409 18.5683C21.0384 18.5683 21.3696 18.6345 21.7009 18.8333C22.8271 19.297 23.357 20.5557 22.8271 21.6819C22.8271 21.6851 22.8072 21.7339 22.7698 21.8256C22.0298 23.6402 14.441 42.2505 18.9185 55.9982C24.7482 56.1307 32.4992 56.0645 38.064 55.7995C29.7168 41.755 32.0355 20.622 32.0355 20.622C32.2342 19.3633 33.2942 18.5683 34.4867 18.5683C37.7328 18.7008 40.6477 19.3633 43.0989 20.2907C44.1588 20.6882 45.1525 21.152 46.08 21.6157C45.8813 14.2622 45.55 8.36615 44.7551 7.70368Z" fill="#10B981"/>
</svg>
